<mxfile host="Electron" agent="Mozilla/5.0 (Macintosh; Intel Mac OS X 10_15_7) AppleWebKit/537.36 (KHTML, like Gecko) draw.io/24.7.17 Chrome/128.0.6613.36 Electron/32.0.1 Safari/537.36" version="24.7.17">
  <diagram name="Page-1" id="aDKRJbGF9nOYmf71zded">
    <mxGraphModel dx="1114" dy="821" grid="1" gridSize="10" guides="1" tooltips="1" connect="1" arrows="1" fold="1" page="1" pageScale="1" pageWidth="827" pageHeight="1169" math="0" shadow="0">
      <root>
        <mxCell id="0" />
        <mxCell id="1" parent="0" />
        <mxCell id="dlff7JJQl0Ds7_RI3qcY-1" value="&lt;span style=&quot;background-color: rgb(151, 208, 119);&quot;&gt;마케팅 바운디드 컨텍스트&lt;/span&gt;" style="rounded=0;whiteSpace=wrap;html=1;horizontal=1;verticalAlign=top;fontStyle=1;fontSize=14;" vertex="1" parent="1">
          <mxGeometry x="50" y="90" width="210" height="90" as="geometry" />
        </mxCell>
        <mxCell id="dlff7JJQl0Ds7_RI3qcY-8" value="&lt;span style=&quot;background-color: rgb(151, 208, 119);&quot;&gt;모놀리식 바운디드 컨텍스트&lt;/span&gt;" style="rounded=0;whiteSpace=wrap;html=1;horizontal=1;verticalAlign=top;fontStyle=1;fontSize=14;" vertex="1" parent="1">
          <mxGeometry x="300" y="90" width="210" height="90" as="geometry" />
        </mxCell>
      </root>
    </mxGraphModel>
  </diagram>
</mxfile>
